<svg id="visual" viewBox="0 0 900 600" width="900" height="600" xmlns="http://www.w3.org/2000/svg" xmlns:xlink="http://www.w3.org/1999/xlink" version="1.1"><path d="M0 121L13.7 119C27.3 117 54.7 113 82 100C109.3 87 136.7 65 163.8 69C191 73 218 103 245.2 113C272.3 123 299.7 113 327 104C354.3 95 381.7 87 409 82C436.3 77 463.7 75 491 79C518.3 83 545.7 93 573 98C600.3 103 627.7 103 654.8 100C682 97 709 91 736.2 93C763.3 95 790.7 105 818 108C845.3 111 872.7 107 886.3 105L900 103L900 0L886.3 0C872.7 0 845.3 0 818 0C790.7 0 763.3 0 736.2 0C709 0 682 0 654.8 0C627.7 0 600.3 0 573 0C545.7 0 518.3 0 491 0C463.7 0 436.3 0 409 0C381.7 0 354.3 0 327 0C299.7 0 272.3 0 245.2 0C218 0 191 0 163.8 0C136.7 0 109.3 0 82 0C54.7 0 27.3 0 13.7 0L0 0Z" fill="#f0feff"></path><path d="M0 283L13.7 268C27.3 253 54.7 223 82 225C109.3 227 136.7 261 163.8 284C191 307 218 319 245.2 317C272.3 315 299.7 299 327 306C354.3 313 381.7 343 409 342C436.3 341 463.7 309 491 295C518.3 281 545.7 285 573 271C600.3 257 627.7 225 654.8 215C682 205 709 217 736.2 242C763.3 267 790.7 305 818 307C845.3 309 872.7 275 886.3 258L900 241L900 101L886.3 103C872.7 105 845.3 109 818 106C790.7 103 763.3 93 736.2 91C709 89 682 95 654.8 98C627.7 101 600.3 101 573 96C545.7 91 518.3 81 491 77C463.7 73 436.3 75 409 80C381.7 85 354.3 93 327 102C299.7 111 272.3 121 245.2 111C218 101 191 71 163.8 67C136.7 63 109.3 85 82 98C54.7 111 27.3 115 13.7 117L0 119Z" fill="#edfeff"></path><path d="M0 379L13.7 355C27.3 331 54.7 283 82 277C109.3 271 136.7 307 163.8 329C191 351 218 359 245.2 364C272.3 369 299.7 371 327 378C354.3 385 381.7 397 409 387C436.3 377 463.7 345 491 334C518.3 323 545.7 333 573 325C600.3 317 627.7 291 654.8 282C682 273 709 281 736.2 307C763.3 333 790.7 377 818 375C845.3 373 872.7 325 886.3 301L900 277L900 239L886.3 256C872.7 273 845.3 307 818 305C790.7 303 763.3 265 736.2 240C709 215 682 203 654.8 213C627.7 223 600.3 255 573 269C545.7 283 518.3 279 491 293C463.7 307 436.3 339 409 340C381.7 341 354.3 311 327 304C299.7 297 272.3 313 245.2 315C218 317 191 305 163.8 282C136.7 259 109.3 225 82 223C54.7 221 27.3 251 13.7 266L0 281Z" fill="#e9fdff"></path><path d="M0 457L13.7 441C27.3 425 54.7 393 82 386C109.3 379 136.7 397 163.8 418C191 439 218 463 245.2 478C272.3 493 299.7 499 327 499C354.3 499 381.7 493 409 486C436.3 479 463.7 471 491 469C518.3 467 545.7 471 573 458C600.3 445 627.7 415 654.8 409C682 403 709 421 736.2 440C763.3 459 790.7 479 818 476C845.3 473 872.7 447 886.3 434L900 421L900 275L886.3 299C872.7 323 845.3 371 818 373C790.7 375 763.3 331 736.2 305C709 279 682 271 654.8 280C627.7 289 600.3 315 573 323C545.7 331 518.3 321 491 332C463.7 343 436.3 375 409 385C381.7 395 354.3 383 327 376C299.7 369 272.3 367 245.2 362C218 357 191 349 163.8 327C136.7 305 109.3 269 82 275C54.7 281 27.3 329 13.7 353L0 377Z" fill="#dbfcff"></path><path d="M0 601L13.7 601C27.3 601 54.7 601 82 601C109.3 601 136.7 601 163.8 601C191 601 218 601 245.2 601C272.3 601 299.7 601 327 601C354.3 601 381.7 601 409 601C436.3 601 463.7 601 491 601C518.3 601 545.7 601 573 601C600.3 601 627.7 601 654.8 601C682 601 709 601 736.2 601C763.3 601 790.7 601 818 601C845.3 601 872.7 601 886.3 601L900 601L900 419L886.3 432C872.7 445 845.3 471 818 474C790.7 477 763.3 457 736.2 438C709 419 682 401 654.8 407C627.7 413 600.3 443 573 456C545.7 469 518.3 465 491 467C463.7 469 436.3 477 409 484C381.7 491 354.3 497 327 497C299.7 497 272.3 491 245.2 476C218 461 191 437 163.8 416C136.7 395 109.3 377 82 384C54.7 391 27.3 423 13.7 439L0 455Z" fill="#ccfaff"></path></svg>